<?xml version="1.0" encoding="UTF-8" standalone="no"?><!-- Generator: Gravit.io --><svg xmlns="http://www.w3.org/2000/svg" xmlns:xlink="http://www.w3.org/1999/xlink" style="isolation:isolate" viewBox="0 0 32 32" width="32pt" height="32pt"><defs><clipPath id="_clipPath_o27dGPK52ULIXCelfgF5V3BzrkVtWk29"><rect width="32" height="32"/></clipPath></defs><g clip-path="url(#_clipPath_o27dGPK52ULIXCelfgF5V3BzrkVtWk29)"><path d=" M 19.467 30.796 C 16.826 30.279 15.256 28.746 11.248 22.798 C 9.918 20.803 9.918 20.803 8.625 20.711 C 6.723 20.582 6.87 20.249 6.926 24.442 C 7 29.207 6.944 29.096 9.696 29.558 C 10.417 29.669 10.472 29.724 10.472 30.149 C 10.472 30.629 10.472 30.629 5.633 30.666 C 1.089 30.703 0.794 30.685 0.701 30.408 C 0.516 29.872 0.794 29.614 1.791 29.429 C 2.918 29.226 3.509 28.764 3.656 27.988 C 3.73 27.693 3.749 23.703 3.712 19.122 C 3.656 9.499 3.767 10.072 1.994 9.684 C 0.886 9.444 0.535 9.185 0.683 8.742 C 0.794 8.447 1.034 8.428 6.076 8.336 C 13.575 8.188 14.979 8.428 16.974 10.201 C 19.061 12.067 19.356 14.911 17.694 17.294 C 16.955 18.365 15.477 19.51 14.332 19.935 C 13.797 20.138 13.353 20.36 13.353 20.434 C 13.353 20.655 15.053 23.075 16.105 24.368 C 18.913 27.785 20.428 29.115 21.998 29.521 C 22.976 29.78 23.254 30.057 22.976 30.537 C 22.681 31.036 21.203 31.147 19.467 30.796 Z  M 12.393 18.55 C 16.087 17.035 16.364 11.956 12.855 10.46 C 11.95 10.072 11.71 10.053 9.438 10.053 C 6.981 10.053 6.981 10.053 6.944 14.32 C 6.907 16.666 6.926 18.698 6.981 18.808 C 7.147 19.196 11.303 18.993 12.393 18.55 Z  M 25.267 13.286 C 22.404 12.75 21.462 10.995 21.61 6.489 C 21.684 3.995 21.887 3.312 22.847 2.277 C 24.546 0.449 28.758 0.615 30.309 2.573 C 30.974 3.404 30.919 3.663 29.995 3.94 C 29.275 4.18 29.275 4.18 28.61 3.515 C 27.04 2 24.325 2.554 23.845 4.512 C 23.604 5.38 23.623 9.056 23.863 9.887 C 24.51 12.233 28.407 12.233 29.072 9.887 C 29.478 8.391 29.386 8.28 27.594 8.188 C 26.726 8.151 26.726 8.151 26.726 7.431 C 26.726 6.729 26.726 6.729 28.795 6.673 C 31.473 6.618 31.436 6.581 31.307 8.539 C 31.14 10.995 30.475 12.178 28.869 12.879 C 27.816 13.323 26.375 13.489 25.267 13.286 Z " fill="rgb(255,255,255)"/></g></svg>